<svg width="16" height="16" viewBox="0 0 16 16" fill="none" xmlns="http://www.w3.org/2000/svg">
<g opacity="0.4">
<path fill-rule="evenodd" clip-rule="evenodd" d="M11.5711 6.85711C11.5711 9.46074 9.46049 11.5714 6.85686 11.5714C4.25324 11.5714 2.14258 9.46074 2.14258 6.85711C2.14258 4.25348 4.25324 2.14282 6.85686 2.14282C9.46049 2.14282 11.5711 4.25348 11.5711 6.85711ZM10.5286 11.2358C9.53553 12.0694 8.25482 12.5714 6.85686 12.5714C3.70095 12.5714 1.14258 10.013 1.14258 6.85711C1.14258 3.7012 3.70095 1.14282 6.85686 1.14282C10.0128 1.14282 12.5711 3.7012 12.5711 6.85711C12.5711 8.25502 12.0692 9.53569 11.2357 10.5287L14.0676 13.3607C14.2629 13.5559 14.2629 13.8725 14.0676 14.0678C13.8724 14.263 13.5558 14.263 13.3605 14.0678L10.5286 11.2358Z" fill="#2D2E46"/>
</g>
</svg>
