<svg width="22" height="19" viewBox="0 0 22 19" fill="none" xmlns="http://www.w3.org/2000/svg">
<path fill-rule="evenodd" clip-rule="evenodd" d="M11 1.5C6 1.5 1.73 4.61 0 9C1.73 13.39 6 16.5 11 16.5C16 16.5 20.27 13.39 22 9C20.27 4.61 16 1.5 11 1.5ZM11 14C8.23997 14 5.99997 11.76 5.99997 9C5.99997 6.24 8.23997 3.99999 11 3.99999C13.76 3.99999 16 6.24 16 9C16 11.76 13.76 14 11 14ZM11 6C9.33997 6 7.99997 7.34 7.99997 9C7.99997 10.66 9.33997 12 11 12C12.66 12 14 10.66 14 9C14 7.34 12.66 6 11 6ZM20.7071 0.292893C21.0976 0.683418 21.0976 1.31658 20.7071 1.70711L3.70711 18.7071C3.31658 19.0976 2.68342 19.0976 2.29289 18.7071C1.90237 18.3166 1.90237 17.6834 2.29289 17.2929L19.2929 0.292893C19.6834 -0.0976311 20.3166 -0.0976311 20.7071 0.292893Z" fill="#2D2E46"/>
</svg>
